<?xml version="1.0" encoding="UTF-8"?>
<svg xmlns="http://www.w3.org/2000/svg" xmlns:xlink="http://www.w3.org/1999/xlink" width="100px" height="88px" viewBox="0 0 99 88" version="1.1">
<g id="surface1">
<path style=" stroke:none;fill-rule:nonzero;fill:rgb(6.666667%,52.156863%,99.607843%);fill-opacity:1;" d="M 22.394531 7.3125 C 33.367188 15.597656 45.167969 32.40625 49.5 41.425781 C 53.832031 32.40625 65.632812 15.597656 76.605469 7.3125 C 84.523438 1.328125 97.351562 -3.296875 97.351562 11.425781 C 97.351562 14.367188 95.675781 36.132812 94.691406 39.664062 C 91.277344 51.949219 78.828125 55.082031 67.753906 53.1875 C 87.109375 56.5 92.035156 67.480469 81.402344 78.460938 C 61.207031 99.3125 52.375 73.230469 50.113281 66.546875 C 49.695312 65.320312 49.503906 64.746094 49.5 65.234375 C 49.496094 64.746094 49.304688 65.320312 48.886719 66.546875 C 46.625 73.230469 37.792969 99.3125 17.597656 78.460938 C 6.964844 67.480469 11.890625 56.5 31.242188 53.1875 C 20.171875 55.082031 7.722656 51.949219 4.308594 39.664062 C 3.324219 36.132812 1.648438 14.367188 1.648438 11.425781 C 1.648438 -3.296875 14.476562 1.328125 22.394531 7.3125 Z M 22.394531 7.3125 "/>
</g>
</svg>
